<svg xmlns="http://www.w3.org/2000/svg" version="1.1" xmlns:xlink="http://www.w3.org/1999/xlink" xmlns:svgjs="http://svgjs.com/svgjs" width="1440" height="1047" preserveAspectRatio="none" viewBox="0 0 1440 1047"><g mask="url(&quot;#SvgjsMask1043&quot;)" fill="none"><rect width="1440" height="1047" x="0" y="0" fill="rgba(95, 102, 225, 1)"></rect><path d="M0,692.294C129.264,706.527,254.52,635.505,356.798,555.188C453.506,479.245,530.519,374.55,557.419,254.565C582.097,144.492,520.167,38.962,497.298,-71.501C476.106,-173.863,492.144,-288.321,427.948,-370.819C362.712,-454.653,252.899,-484.306,151.483,-515.904C48.568,-547.969,-61.157,-590.42,-162.939,-554.92C-263.545,-519.83,-320.769,-418.038,-381.037,-330.171C-435.479,-250.798,-469.962,-164.135,-494.769,-71.137C-522.614,33.25,-568.482,141.506,-534.182,243.953C-498.85,349.482,-394.881,410.263,-309.639,481.807C-212.069,563.698,-126.617,678.352,0,692.294" fill="#4951dd"></path><path d="M1440 1533.3319999999999C1532.951 1533.715 1630.237 1513.517 1701.3220000000001 1453.625 1769.326 1396.328 1765.806 1292.47 1814.3229999999999 1217.948 1875.093 1124.606 2024.652 1074.853 2020.379 963.554 2016.231 855.515 1881.274 804.96 1795.921 738.5930000000001 1725.812 684.079 1655.204 627.544 1567.826 611.6659999999999 1485.141 596.6410000000001 1407.599 641.9259999999999 1324.278 652.887 1221.341 666.429 1108.214 627.8330000000001 1020.668 683.6469999999999 925.913 744.057 863.335 850.736 841.154 960.899 818.419 1073.811 832.172 1199.925 897.637 1294.689 960.1030000000001 1385.112 1079.463 1407.217 1180.057 1451.479 1264.925 1488.821 1347.281 1532.95 1440 1533.3319999999999" fill="#757be5"></path></g><defs><mask id="SvgjsMask1043"><rect width="1440" height="1047" fill="#ffffff"></rect></mask></defs></svg>